<svg width="21" height="22" viewBox="0 0 21 22" fill="none" xmlns="http://www.w3.org/2000/svg">
<path d="M19.875 13.0625C20.0156 12.4062 20.1094 11.7031 20.1094 11C20.1094 5.70312 15.7969 1.39062 10.5 1.39062C9.79688 1.39062 9.09375 1.48438 8.4375 1.625C7.54688 0.921875 6.42188 0.5 5.25 0.5C2.34375 0.5 0 2.89062 0 5.75C0 6.96875 0.375 8.09375 1.07812 8.98438C0.9375 9.64062 0.84375 10.3438 0.84375 11C0.84375 16.3438 5.15625 20.6562 10.4531 20.6562C11.1562 20.6562 11.8594 20.5625 12.5156 20.4219C13.4062 21.125 14.5312 21.5 15.7031 21.5C18.6094 21.5 20.9531 19.1562 20.9531 16.25C21 15.0781 20.5781 13.9531 19.875 13.0625ZM10.7812 17.375C7.6875 17.375 5.10938 16.0156 5.10938 14.3281C5.10938 13.5781 5.53125 12.875 6.51562 12.875C7.96875 12.875 8.10938 14.9844 10.6406 14.9844C11.8125 14.9844 12.6094 14.4688 12.6094 13.7656C12.6094 12.875 11.8594 12.7344 10.6406 12.4531C7.73438 11.7031 5.10938 11.4219 5.10938 8.375C5.10938 5.5625 7.875 4.53125 10.2188 4.53125C12.7969 4.53125 15.4219 5.5625 15.4219 7.15625C15.4219 7.95312 14.9062 8.65625 14.0156 8.65625C12.7031 8.65625 12.6562 7.0625 10.5 7.0625C9.28125 7.0625 8.53125 7.39062 8.53125 8.14062C8.53125 9.03125 9.51562 9.125 11.7656 9.6875C13.6875 10.1094 16.0312 10.9062 16.0312 13.2969C16.0312 16.0625 13.3594 17.375 10.7812 17.375Z" fill="$textColorMinor"/>
</svg>
