<svg width="21" height="22" viewBox="0 0 21 22" fill="none" xmlns="http://www.w3.org/2000/svg">
<path d="M4.40625 13.8125V11.6094H2.20312C0.984375 11.6094 0 12.5938 0 13.8125C0 14.9844 0.984375 16.0156 2.20312 16.0156C3.375 16.0156 4.40625 14.9844 4.40625 13.8125ZM5.48438 13.8125V19.2969C5.48438 20.5156 6.51562 21.5 7.6875 21.5C8.90625 21.5 9.89062 20.5156 9.89062 19.2969V13.8125C9.89062 12.5938 8.90625 11.6094 7.6875 11.6094C6.51562 11.6094 5.48438 12.5938 5.48438 13.8125ZM7.6875 4.95312H9.89062V2.75C9.89062 1.53125 8.90625 0.5 7.6875 0.5C6.51562 0.5 5.48438 1.53125 5.48438 2.75C5.48438 3.92188 6.51562 4.95312 7.6875 4.95312ZM7.6875 6.03125H2.20312C0.984375 6.03125 0 7.01562 0 8.23438C0 9.45312 0.984375 10.4375 2.20312 10.4375H7.6875C8.90625 10.4375 9.89062 9.45312 9.89062 8.23438C9.89062 7.01562 8.90625 6.03125 7.6875 6.03125ZM16.5469 8.23438V10.4375H18.75C19.9688 10.4375 21 9.45312 21 8.23438C21 7.01562 19.9688 6.03125 18.75 6.03125C17.5781 6.03125 16.5469 7.01562 16.5469 8.23438ZM15.4688 8.23438V2.75C15.4688 1.53125 14.4844 0.5 13.2656 0.5C12.0469 0.5 11.0625 1.53125 11.0625 2.75V8.23438C11.0625 9.45312 12.0469 10.4375 13.2656 10.4375C14.4844 10.4375 15.4688 9.45312 15.4688 8.23438ZM13.2656 17.0938H11.0625V19.2969C11.0625 20.5156 12.0469 21.5 13.2656 21.5C14.4844 21.5 15.4688 20.5156 15.4688 19.2969C15.4688 18.125 14.4844 17.0938 13.2656 17.0938ZM13.2656 16.0156H18.75C19.9688 16.0156 21 14.9844 21 13.8125C21 12.5938 19.9688 11.6094 18.75 11.6094H13.2656C12.0469 11.6094 11.0625 12.5938 11.0625 13.8125C11.0625 14.9844 12.0469 16.0156 13.2656 16.0156Z" fill="$textColorMinor"/>
</svg>
