<svg width="92" height="91" viewBox="0 0 92 91" fill="none" xmlns="http://www.w3.org/2000/svg">
<g filter="url(#filter0_f_1339_676)">
<path d="M51.5934 46.5041V58.5041H63.5934V46.5041H51.5934ZM44.2254 46.5041V34.5041H22.7092L34.0158 52.81L44.2254 46.5041ZM46.7454 50.5841V62.5841H68.2615L56.955 44.2782L46.7454 50.5841ZM44.1054 50.5841L34.1208 57.2405L37.6832 62.5841H44.1054V50.5841ZM40.6494 45.4001L30.6648 38.7437L26.2272 45.4001L30.6648 52.0565L40.6494 45.4001ZM44.1054 40.2161V28.2161H37.6832L34.1208 33.5597L44.1054 40.2161ZM46.7454 40.2161L56.9447 46.5385L68.3025 28.2161H46.7454V40.2161ZM44.2014 44.3201L34.002 37.9977L22.6443 56.3201H44.2014V44.3201ZM51.5934 44.3201H63.5934V32.3201H51.5934V44.3201ZM51.5934 34.5041H44.2254V58.5041H51.5934V34.5041ZM34.0158 52.81L36.5358 56.89L56.955 44.2782L54.435 40.1982L34.0158 52.81ZM46.7454 38.5841H44.1054V62.5841H46.7454V38.5841ZM54.09 43.9277L50.634 38.7437L30.6648 52.0565L34.1208 57.2405L54.09 43.9277ZM50.634 52.0565L54.09 46.8725L34.1208 33.5597L30.6648 38.7437L50.634 52.0565ZM44.1054 52.2161H46.7454V28.2161H44.1054V52.2161ZM36.546 33.8937L34.002 37.9977L54.4007 50.6425L56.9447 46.5385L36.546 33.8937ZM44.2014 56.3201H51.5934V32.3201H44.2014V56.3201ZM39.5934 44.3201V46.5041H63.5934V44.3201H39.5934Z" fill="#EC1B59"/>
</g>
<g filter="url(#filter1_f_1339_676)">
<path d="M51.5934 46.5041V50.0041H55.0934V46.5041H51.5934ZM44.2254 46.5041V43.0041H37.9498L41.2476 48.3433L44.2254 46.5041ZM46.7454 50.5841V54.0841H53.0209L49.7232 48.7449L46.7454 50.5841ZM44.1054 50.5841L41.1932 52.5256L42.2322 54.0841H44.1054V50.5841ZM40.6494 45.4001L37.7372 43.4587L36.4429 45.4001L37.7372 47.3416L40.6494 45.4001ZM44.1054 40.2161V36.7161H42.2322L41.1932 38.2747L44.1054 40.2161ZM46.7454 40.2161L49.7202 42.0602L53.0329 36.7161H46.7454V40.2161ZM44.2014 44.3201L41.2266 42.4761L37.9139 47.8201H44.2014V44.3201ZM51.5934 44.3201H55.0934V40.8201H51.5934V44.3201ZM51.5934 43.0041H44.2254V50.0041H51.5934V43.0041ZM41.2476 48.3433L43.7676 52.4233L49.7232 48.7449L47.2032 44.6649L41.2476 48.3433ZM46.7454 47.0841H44.1054V54.0841H46.7454V47.0841ZM47.0176 48.6427L43.5616 43.4587L37.7372 47.3416L41.1932 52.5256L47.0176 48.6427ZM43.5616 47.3416L47.0176 42.1576L41.1932 38.2747L37.7372 43.4587L43.5616 47.3416ZM44.1054 43.7161H46.7454V36.7161H44.1054V43.7161ZM43.7706 38.3721L41.2266 42.4761L47.1762 46.1642L49.7202 42.0602L43.7706 38.3721ZM44.2014 47.8201H51.5934V40.8201H44.2014V47.8201ZM48.0934 44.3201V46.5041H55.0934V44.3201H48.0934Z" fill="#EC1B59"/>
</g>
<path d="M51.5934 46.5041H44.2254L46.7454 50.5841H44.1054L40.6494 45.4001L44.1054 40.2161H46.7454L44.2014 44.3201H51.5934V46.5041Z" fill="#DADADA"/>
<defs>
<filter id="filter0_f_1339_676" x="0.649414" y="0.216064" width="90.944" height="90.368" filterUnits="userSpaceOnUse" color-interpolation-filters="sRGB">
<feFlood flood-opacity="0" result="BackgroundImageFix"/>
<feBlend mode="normal" in="SourceGraphic" in2="BackgroundImageFix" result="shape"/>
<feGaussianBlur stdDeviation="20" result="effect1_foregroundBlur_1339_676"/>
</filter>
<filter id="filter1_f_1339_676" x="31.6494" y="31.2161" width="28.944" height="28.368" filterUnits="userSpaceOnUse" color-interpolation-filters="sRGB">
<feFlood flood-opacity="0" result="BackgroundImageFix"/>
<feBlend mode="normal" in="SourceGraphic" in2="BackgroundImageFix" result="shape"/>
<feGaussianBlur stdDeviation="4.5" result="effect1_foregroundBlur_1339_676"/>
</filter>
</defs>
</svg>
