<svg width="92" height="91" viewBox="0 0 92 91" fill="none" xmlns="http://www.w3.org/2000/svg">
<g filter="url(#filter0_f_1339_673)">
<path d="M51.36 45.4001L61.3588 52.0352L65.7822 45.3693L61.3303 38.7223L51.36 45.4001ZM47.904 50.6081V62.6081H54.3427L57.9028 57.2432L47.904 50.6081ZM45.264 50.6081L35.0646 44.2857L23.7069 62.6081H45.264V50.6081ZM47.808 46.5041L58.0074 52.8265L69.3651 34.5041H47.808V46.5041ZM40.416 46.5041H28.416V58.5041H40.416V46.5041ZM40.416 44.3201V32.3201H28.416V44.3201H40.416ZM47.808 44.3201V56.3201H69.432L57.9907 37.9709L47.808 44.3201ZM45.264 40.2401V28.2401H23.64L35.0813 46.5893L45.264 40.2401ZM47.904 40.2401L57.8743 33.5623L54.3097 28.2401H47.904V40.2401ZM41.3612 38.765L37.9052 43.973L57.9028 57.2432L61.3588 52.0352L41.3612 38.765ZM47.904 38.6081H45.264V62.6081H47.904V38.6081ZM55.4634 56.9305L58.0074 52.8265L37.6086 40.1817L35.0646 44.2857L55.4634 56.9305ZM47.808 34.5041H40.416V58.5041H47.808V34.5041ZM52.416 46.5041V44.3201H28.416V46.5041H52.416ZM40.416 56.3201H47.808V32.3201H40.416V56.3201ZM57.9907 37.9709L55.4467 33.8909L35.0813 46.5893L37.6253 50.6693L57.9907 37.9709ZM45.264 52.2401H47.904V28.2401H45.264V52.2401ZM37.9337 46.9179L41.3897 52.0779L61.3303 38.7223L57.8743 33.5623L37.9337 46.9179Z" fill="#EC1B59"/>
</g>
<g filter="url(#filter1_f_1339_673)">
<path d="M51.36 45.4001L54.2763 47.3354L55.5665 45.3911L54.268 43.4524L51.36 45.4001ZM47.904 50.6081V54.1081H49.7819L50.8203 52.5434L47.904 50.6081ZM45.264 50.6081L42.2892 48.7641L38.9765 54.1081H45.264V50.6081ZM47.808 46.5041L50.7828 48.3482L54.0955 43.0041H47.808V46.5041ZM40.416 46.5041H36.916V50.0041H40.416V46.5041ZM40.416 44.3201V40.8201H36.916V44.3201H40.416ZM47.808 44.3201V47.8201H54.115L50.778 42.4683L47.808 44.3201ZM45.264 40.2401V36.7401H38.957L42.294 42.092L45.264 40.2401ZM47.904 40.2401L50.812 38.2924L49.7723 36.7401H47.904V40.2401ZM48.4437 43.4649L44.9877 48.6729L50.8203 52.5434L54.2763 47.3354L48.4437 43.4649ZM47.904 47.1081H45.264V54.1081H47.904V47.1081ZM48.2388 52.4522L50.7828 48.3482L44.8332 44.6601L42.2892 48.7641L48.2388 52.4522ZM47.808 43.0041H40.416V50.0041H47.808V43.0041ZM43.916 46.5041V44.3201H36.916V46.5041H43.916ZM40.416 47.8201H47.808V40.8201H40.416V47.8201ZM50.778 42.4683L48.234 38.3883L42.294 42.092L44.838 46.172L50.778 42.4683ZM45.264 43.7401H47.904V36.7401H45.264V43.7401ZM44.996 42.1878L48.452 47.3478L54.268 43.4524L50.812 38.2924L44.996 42.1878Z" fill="#EC1B59"/>
</g>
<path d="M51.36 45.4001L47.904 50.6081H45.264L47.808 46.5041H40.416V44.3201H47.808L45.264 40.2401H47.904L51.36 45.4001Z" fill="#DADADA"/>
<defs>
<filter id="filter0_f_1339_673" x="0.416016" y="0.240112" width="90.9441" height="90.368" filterUnits="userSpaceOnUse" color-interpolation-filters="sRGB">
<feFlood flood-opacity="0" result="BackgroundImageFix"/>
<feBlend mode="normal" in="SourceGraphic" in2="BackgroundImageFix" result="shape"/>
<feGaussianBlur stdDeviation="20" result="effect1_foregroundBlur_1339_673"/>
</filter>
<filter id="filter1_f_1339_673" x="31.416" y="31.2401" width="28.9441" height="28.368" filterUnits="userSpaceOnUse" color-interpolation-filters="sRGB">
<feFlood flood-opacity="0" result="BackgroundImageFix"/>
<feBlend mode="normal" in="SourceGraphic" in2="BackgroundImageFix" result="shape"/>
<feGaussianBlur stdDeviation="4.5" result="effect1_foregroundBlur_1339_673"/>
</filter>
</defs>
</svg>
