<svg width="21" height="22" fill="none" xmlns="http://www.w3.org/2000/svg"><path d="M4.406 13.813v-2.204H2.203A2.2 2.2 0 000 13.813c0 1.171.984 2.203 2.203 2.203 1.172 0 2.203-1.032 2.203-2.203zm1.078 0v5.484c0 1.219 1.032 2.203 2.204 2.203a2.2 2.2 0 002.203-2.203v-5.485a2.2 2.2 0 00-2.204-2.203c-1.171 0-2.203.985-2.203 2.204zm2.204-8.86H9.89V2.75C9.89 1.531 8.906.5 7.687.5 6.516.5 5.485 1.531 5.485 2.75c0 1.172 1.032 2.203 2.204 2.203zm0 1.078H2.202A2.2 2.2 0 000 8.234a2.2 2.2 0 002.203 2.204h5.485A2.2 2.2 0 009.89 8.233 2.2 2.2 0 007.686 6.03zm8.859 2.203v2.204h2.203c1.219 0 2.25-.985 2.25-2.204 0-1.218-1.031-2.203-2.25-2.203-1.172 0-2.203.985-2.203 2.203zm-1.078 0V2.75c0-1.219-.985-2.25-2.203-2.25-1.22 0-2.204 1.031-2.204 2.25v5.484a2.2 2.2 0 002.204 2.204 2.2 2.2 0 002.203-2.204zm-2.203 8.86h-2.204v2.203a2.2 2.2 0 002.204 2.203 2.2 2.2 0 002.203-2.203c0-1.172-.985-2.203-2.203-2.203zm0-1.078h5.484c1.219 0 2.25-1.032 2.25-2.203 0-1.22-1.031-2.204-2.25-2.204h-5.484a2.2 2.2 0 00-2.204 2.204c0 1.171.985 2.203 2.204 2.203z" fill="$textColorMinor"/></svg>