<svg width="216" height="216" fill="none" xmlns="http://www.w3.org/2000/svg"><g filter="url(#filter0_d_1209_590)"><path d="M136.594 121.984c-1.927 6.302-5.521 11.381-10.782 15.235C120.552 141.073 114.615 143 108 143c-6.615 0-12.552-1.927-17.813-5.781-5.26-3.854-8.854-8.933-10.78-15.235-.417-1.302-.313-2.565.312-3.789.625-1.224 1.614-2.044 2.969-2.461 1.302-.416 2.565-.312 3.789.313 1.224.625 2.044 1.614 2.46 2.969 1.303 4.166 3.711 7.539 7.227 10.117C99.68 131.711 103.625 133 108 133s8.32-1.289 11.836-3.867c3.516-2.578 5.924-5.951 7.226-10.117.417-1.355 1.25-2.344 2.5-2.969s2.527-.729 3.829-.313c1.302.417 2.265 1.237 2.89 2.461.625 1.224.729 2.487.313 3.789zM98 88c0 2.76-.977 5.117-2.93 7.07C93.117 97.023 90.76 98 88 98c-2.76 0-5.117-.977-7.07-2.93C78.977 93.117 78 90.76 78 88c0-2.76.977-5.117 2.93-7.07C82.883 78.977 85.24 78 88 78c2.76 0 5.117.977 7.07 2.93C97.023 82.883 98 85.24 98 88zm40 0c0 2.76-.977 5.117-2.93 7.07-1.953 1.953-4.31 2.93-7.07 2.93-2.76 0-5.117-.977-7.07-2.93-1.953-1.953-2.93-4.31-2.93-7.07 0-2.76.977-5.117 2.93-7.07 1.953-1.953 4.31-2.93 7.07-2.93 2.76 0 5.117.977 7.07 2.93 1.953 1.953 2.93 4.31 2.93 7.07zm20 20c0-6.771-1.328-13.242-3.984-19.414-2.657-6.172-6.211-11.484-10.664-15.938-4.454-4.453-9.766-8.007-15.938-10.664C121.242 59.328 114.771 58 108 58c-6.771 0-13.242 1.328-19.414 3.984-6.172 2.657-11.484 6.211-15.938 10.664-4.453 4.454-8.007 9.766-10.664 15.938C59.328 94.758 58 101.229 58 108c0 6.771 1.328 13.242 3.984 19.414 2.657 6.172 6.211 11.484 10.664 15.938 4.454 4.453 9.766 8.007 15.938 10.664C94.758 156.672 101.229 158 108 158c6.771 0 13.242-1.328 19.414-3.984 6.172-2.657 11.484-6.211 15.938-10.664 4.453-4.454 8.007-9.766 10.664-15.938C156.672 121.242 158 114.771 158 108zm10 0c0 10.885-2.682 20.924-8.047 30.117-5.364 9.193-12.643 16.472-21.836 21.836C128.924 165.318 118.885 168 108 168c-10.885 0-20.924-2.682-30.117-8.047-9.193-5.364-16.471-12.643-21.836-21.836C50.682 128.924 48 118.885 48 108c0-10.885 2.682-20.924 8.047-30.117C61.41 68.69 68.69 61.412 77.883 56.047 87.076 50.682 97.115 48 108 48c10.885 0 20.924 2.682 30.117 8.047 9.193 5.364 16.472 12.643 21.836 21.836C165.318 87.076 168 97.115 168 108z" fill="$textColorMinor"/><path d="M132.308 120.613l-.009.028-.009.027c-1.646 5.385-4.669 9.647-9.137 12.921-4.477 3.28-9.48 4.911-15.153 4.911s-10.676-1.631-15.153-4.911c-4.468-3.274-7.491-7.536-9.137-12.921l-.009-.027-.009-.028a.785.785 0 01-.034-.142.2.2 0 01-.001-.041c0-.005.002-.018.009-.043a.847.847 0 01.136-.26.196.196 0 01.039-.025c.028-.015.081-.039.17-.067l.024-.007.024-.008a.683.683 0 01.183-.035c.005 0 .018.002.043.009a.841.841 0 01.26.136h0c.001.001.01.012.025.039.014.028.04.082.067.17l.002.009.003.01c1.589 5.082 4.57 9.257 8.86 12.404 4.291 3.146 9.17 4.738 14.498 4.738 5.328 0 10.207-1.592 14.497-4.738 4.292-3.148 7.272-7.322 8.861-12.404l.003-.01.003-.009a.807.807 0 01.06-.153l.013-.023.005-.007.004-.003.014-.012a.622.622 0 01.115-.069.706.706 0 01.248-.087h.001c.013-.001.068-.006.195.035.07.023.11.042.128.052.018.01.024.015.026.017.001.001.009.007.023.025a.895.895 0 01.078.128.804.804 0 01.06.145.204.204 0 01.008.084.801.801 0 01-.034.142zM93.5 88c0 1.566-.502 2.778-1.612 3.888-1.11 1.11-2.322 1.612-3.888 1.612-1.566 0-2.778-.502-3.888-1.612-1.11-1.11-1.612-2.322-1.612-3.888 0-1.566.502-2.778 1.612-3.888 1.11-1.11 2.322-1.612 3.888-1.612 1.566 0 2.778.502 3.888 1.612 1.11 1.11 1.612 2.322 1.612 3.888zm40 0c0 1.566-.502 2.778-1.612 3.888-1.109 1.11-2.322 1.612-3.888 1.612-1.566 0-2.779-.502-3.888-1.612-1.11-1.11-1.612-2.322-1.612-3.888 0-1.566.502-2.778 1.612-3.888 1.109-1.11 2.322-1.612 3.888-1.612 1.566 0 2.779.502 3.888 1.612 1.11 1.11 1.612 2.322 1.612 3.888zm29 20c0-7.378-1.451-14.455-4.351-21.193-2.866-6.66-6.733-12.458-11.615-17.34-4.883-4.883-10.681-8.75-17.341-11.616-6.738-2.9-13.815-4.351-21.193-4.351-7.378 0-14.455 1.45-21.193 4.35-6.66 2.867-12.458 6.734-17.34 11.616-4.883 4.883-8.75 10.68-11.616 17.341C54.95 93.545 53.5 100.622 53.5 108c0 7.378 1.45 14.455 4.35 21.193 2.867 6.66 6.734 12.458 11.616 17.341 4.883 4.882 10.68 8.749 17.341 11.615 6.738 2.9 13.815 4.351 21.193 4.351 7.378 0 14.455-1.451 21.193-4.351 6.66-2.866 12.458-6.733 17.341-11.615 4.882-4.883 8.749-10.681 11.615-17.341 2.9-6.738 4.351-13.815 4.351-21.193zm1 0c0 10.107-2.48 19.361-7.433 27.849-4.974 8.523-11.695 15.244-20.218 20.218-8.488 4.953-17.742 7.433-27.849 7.433s-19.361-2.48-27.85-7.433c-8.522-4.974-15.243-11.695-20.217-20.218C54.98 127.361 52.5 118.107 52.5 108s2.48-19.361 7.434-27.85c4.973-8.522 11.694-15.243 20.217-20.217C88.639 54.98 97.893 52.5 108 52.5s19.361 2.48 27.849 7.434c8.523 4.973 15.244 11.694 20.218 20.217C161.02 88.639 163.5 97.893 163.5 108z" stroke="$textColorMinor" stroke-width="9"/></g><defs><filter id="filter0_d_1209_590" x="0" y="0" width="216" height="216" filterUnits="userSpaceOnUse" color-interpolation-filters="sRGB"><feFlood flood-opacity="0" result="BackgroundImageFix"/><feColorMatrix in="SourceAlpha" values="0 0 0 0 0 0 0 0 0 0 0 0 0 0 0 0 0 0 127 0" result="hardAlpha"/><feOffset/><feGaussianBlur stdDeviation="24"/><feComposite in2="hardAlpha" operator="out"/><feColorMatrix values="0 0 0 0 0.92549 0 0 0 0 0.105882 0 0 0 0 0.34902 0 0 0 1 0"/><feBlend in2="BackgroundImageFix" result="effect1_dropShadow_1209_590"/><feBlend in="SourceGraphic" in2="effect1_dropShadow_1209_590" result="shape"/></filter></defs></svg>