<svg width="21" height="22" fill="none" xmlns="http://www.w3.org/2000/svg"><path d="M19.875 13.063c.14-.657.234-1.36.234-2.063 0-5.297-4.312-9.61-9.609-9.61a9.93 9.93 0 00-2.063.235A5.175 5.175 0 005.25.5C2.344.5 0 2.89 0 5.75c0 1.219.375 2.344 1.078 3.234A9.853 9.853 0 00.844 11c0 5.344 4.312 9.656 9.61 9.656.702 0 1.405-.093 2.062-.234.89.703 2.015 1.078 3.187 1.078a5.241 5.241 0 005.25-5.25c.047-1.172-.375-2.297-1.078-3.188zm-9.094 4.312c-3.094 0-5.672-1.36-5.672-3.047 0-.75.422-1.453 1.407-1.453 1.453 0 1.593 2.11 4.125 2.11 1.171 0 1.968-.516 1.968-1.22 0-.89-.75-1.03-1.968-1.312-2.907-.75-5.532-1.031-5.532-4.078 0-2.813 2.766-3.844 5.11-3.844 2.578 0 5.203 1.032 5.203 2.625 0 .797-.516 1.5-1.406 1.5-1.313 0-1.36-1.594-3.516-1.594-1.219 0-1.969.329-1.969 1.079 0 .89.985.984 3.235 1.546 1.921.422 4.265 1.22 4.265 3.61 0 2.765-2.672 4.078-5.25 4.078z" fill="$textColorMinor"/></svg>