<svg width="24" height="26" fill="none" xmlns="http://www.w3.org/2000/svg"><path d="M20.813 3.344c-.61-.516-3.047-2.297-8.391-2.297 0 0-6.328-.375-9.422 2.437C1.266 5.22.656 7.704.61 10.844.562 13.938.468 19.797 6.093 21.39v2.39s-.047.985.61 1.219c.796.234 1.218-.516 1.968-1.313.422-.468.984-1.078 1.406-1.593 3.844.328 6.797-.422 7.172-.516.75-.281 5.156-.844 5.86-6.656.75-6.047-.329-9.844-2.297-11.578zm.609 11.11c-.563 4.874-4.172 5.202-4.828 5.437-.282.047-2.86.703-6.14.515 0 0-2.438 2.907-3.188 3.703-.235.235-.516.235-.516-.28v-4.032c-4.734-1.313-4.453-6.281-4.406-8.86.047-2.624.515-4.734 1.969-6.187 2.625-2.39 8.015-2.016 8.015-2.016 4.547 0 6.703 1.407 7.219 1.829 1.687 1.453 2.531 4.875 1.875 9.89zm-6.516-3.75c-.047-1.36-.75-2.11-2.062-2.204-.422 0-.469.61-.047.61.984.093 1.453.562 1.547 1.593 0 .422.61.375.562 0zm.985.515c0 .375.609.422.609 0 .047-2.25-1.406-4.125-4.125-4.313-.422-.047-.469.563-.047.61 2.344.14 3.61 1.734 3.563 3.703zm2.203.61c-.047-4.079-2.813-6.47-6.282-6.517-.374 0-.374.61 0 .61 3.094.047 5.626 2.11 5.672 5.906 0 .422.61.422.61 0zm-.563 4.593c.235-.422.188-.797-.14-1.078a11.375 11.375 0 00-2.157-1.547c-.515-.281-1.03-.094-1.265.187l-.422.563c-.235.281-.656.234-.656.234-3.141-.797-3.985-3.937-3.985-3.937s0-.422.281-.656l.563-.47c.281-.234.422-.75.14-1.265a7.04 7.04 0 00-.703-1.078C8.954 7 8.345 6.344 8.345 6.344c-.235-.375-.656-.422-1.078-.188H7.22c-.89.469-1.875 1.453-1.547 2.39 0 0 .234.845 1.219 2.626.468.89.984 1.594 1.453 2.203.515.656 1.219 1.36 1.969 1.969 1.5 1.172 3.796 2.39 4.78 2.672h.048c.937.328 1.921-.657 2.39-1.547v-.047z" fill="$textColorMinor"/></svg>